<?xml version="1.0" standalone="no"?>
<!DOCTYPE svg PUBLIC "-//W3C//DTD SVG 20010904//EN"
 "http://www.w3.org/TR/2001/REC-SVG-20010904/DTD/svg10.dtd">
<svg version="1.0" xmlns="http://www.w3.org/2000/svg"
 width="500.000000pt" height="500.000000pt" viewBox="0 0 500.000000 500.000000"
 preserveAspectRatio="xMidYMid meet">
<metadata>
Created by potrace 1.14, written by Peter Selinger 2001-2017
</metadata>
<g transform="translate(0.000000,500.000000) scale(0.100000,-0.100000)"
fill="#000000" stroke="none">
<path d="M2275 4809 c-431 -44 -856 -214 -1195 -477 -118 -92 -287 -258 -383
-377 -208 -258 -360 -561 -442 -880 -56 -217 -70 -332 -70 -580 0 -248 14
-363 70 -580 101 -394 297 -742 585 -1039 186 -191 374 -330 614 -452 223
-114 461 -191 716 -231 160 -25 510 -25 670 0 517 81 973 315 1330 683 288
297 484 645 585 1039 56 217 70 332 70 580 0 248 -14 363 -70 580 -106 414
-322 786 -631 1085 -386 375 -864 596 -1403 650 -118 11 -328 11 -446 -1z
m1065 -1001 c0 -71 -2 -76 -260 -692 -333 -798 -401 -978 -463 -1231 -69 -277
-68 -404 4 -546 46 -92 57 -155 39 -228 -44 -183 -268 -243 -408 -108 -65 62
-77 98 -76 227 1 171 22 232 330 955 112 264 286 676 388 915 l184 435 -412 3
c-614 4 -699 -8 -773 -105 -29 -39 -55 -126 -89 -300 -4 -22 -9 -23 -84 -23
l-80 0 0 385 0 385 850 0 850 0 0 -72z"/>
</g>
</svg>
